<?xml version="1.0" encoding="UTF-8"?>
<!DOCTYPE svg PUBLIC "-//W3C//DTD SVG 1.1//EN" "http://www.w3.org/Graphics/SVG/1.1/DTD/svg11.dtd">
<!-- Creator: CorelDRAW -->
<svg xmlns="http://www.w3.org/2000/svg" xml:space="preserve" width="16.9332mm" height="16.9332mm" style="shape-rendering:geometricPrecision; text-rendering:geometricPrecision; image-rendering:optimizeQuality; fill-rule:evenodd; clip-rule:evenodd"
viewBox="0 0 16.9332 16.9332"
 xmlns:xlink="http://www.w3.org/1999/xlink">
 <defs>
  <style type="text/css">
   <![CDATA[
    .str0 {stroke:#1F1A17;stroke-width:0.0762}
    .fil2 {fill:black}
    .fil1 {fill:darkgray}
    .fil0 {fill:white}
   ]]>
  </style>
 </defs>
 <g id="Camada_x0020_1">
  <metadata id="CorelCorpID_0Corel-Layer"/>
  <g id="_100367592">
   <rect id="_100369016" class="fil0 str0" x="-5.03205e-005" y="-5.03205e-005" width="16.9333" height="16.9333"/>
   <path id="_100442104" class="fil1" d="M8.1679 11.127c-1.654,0 -2.9955,-1.3342 -2.9955,-2.9797 0,-0.7164 0.2552,-1.373 0.679,-1.887 -1.614,0.5393 -3.2294,1.5363 -4.8096,2.7739 1.8594,-1.6892 3.9302,-3.4729 7.1645,-3.5668 4.4769,0.3274 6.6252,2.9384 7.0564,4.169 0.4509,1.1437 -1.0747,1.455 -1.3897,0.6485l-0.0092 -0.0252c-1.1959,1.2044 -3.0699,1.9567 -5.8428,2.1097 -3.7704,-0.0898 -5.0527,-1.4845 -6.8248,-2.7021 1.9509,1.1257 3.7152,2.4519 6.8865,2.455 2.4508,-0.1837 4.4794,-0.8998 5.6393,-2.7128 -0.008,-0.154 -0.0259,-0.3004 -0.1115,-0.4834 -0.6984,-1.2767 -1.7694,-2.1191 -3.0799,-2.6085 0.3962,0.5051 0.6328,1.1398 0.6328,1.8297 0,1.6455 -1.3414,2.9797 -2.9955,2.9797zm-7.6415 -2.168c2.0806,-2.3667 4.4333,-4.2439 7.7561,-4.3744 3.4365,-0.0452 5.8428,1.4888 8.0353,3.3506 0.4154,0.593 -0.0848,1.246 -0.9618,0.6515 -1.5153,-1.7419 -3.1499,-3.2852 -7.0115,-3.5058 -2.3255,-0.1973 -4.9868,1.4599 -7.8181,3.8781zm7.6049 -1.8709c0.6178,0 1.1186,0.5008 1.1186,1.1184 0,0.6178 -0.5008,1.1186 -1.1186,1.1186 -0.6176,0 -1.1184,-0.5008 -1.1184,-1.1186 0,-0.6176 0.5008,-1.1184 1.1184,-1.1184zm-1.4374 0.9043c-0.0632,0.2898 -0.0037,0.555 0.14,0.8027 -0.3474,0.1742 -0.6948,0.3483 -1.0424,0.5223 -0.226,-0.4189 -0.3257,-0.8798 -0.2412,-1.4031 0.3813,0.026 0.7625,0.052 1.1436,0.0781z"/>
   <path id="_155863952" class="fil2" d="M8.2224 11.0179c-1.654,0 -2.9955,-1.3342 -2.9955,-2.9796 0,-0.7165 0.2552,-1.3731 0.679,-1.8871 -1.614,0.5393 -3.2294,1.5364 -4.8097,2.7739 1.8595,-1.6892 3.9303,-3.4729 7.1645,-3.5668 4.477,0.3274 6.6252,2.9385 7.0564,4.169 0.4509,1.1437 -1.0747,1.455 -1.3896,0.6485l-0.0092 -0.0252c-1.1959,1.2044 -3.07,1.9567 -5.8429,2.1097 -3.7704,-0.0898 -5.0526,-1.4845 -6.8248,-2.7021 1.951,1.1257 3.7153,2.4519 6.8866,2.455 2.4508,-0.1837 4.4794,-0.8998 5.6393,-2.7128 -0.008,-0.154 -0.0259,-0.3004 -0.1115,-0.4834 -0.6984,-1.2767 -1.7694,-2.1191 -3.0799,-2.6085 0.3962,0.5052 0.6328,1.1398 0.6328,1.8298 0,1.6454 -1.3415,2.9796 -2.9955,2.9796zm-7.6416 -2.168c2.0807,-2.3667 4.4334,-4.2439 7.7561,-4.3744 3.4366,-0.0452 5.8429,1.4888 8.0353,3.3506 0.4155,0.593 -0.0847,1.246 -0.9617,0.6515 -1.5154,-1.7419 -3.1499,-3.2851 -7.0115,-3.5057 -2.3256,-0.1973 -4.9868,1.4598 -7.8182,3.878zm7.605 -1.8709c0.6178,0 1.1186,0.5008 1.1186,1.1185 0,0.6177 -0.5008,1.1185 -1.1186,1.1185 -0.6176,0 -1.1184,-0.5008 -1.1184,-1.1185 0,-0.6177 0.5008,-1.1185 1.1184,-1.1185zm-1.4374 0.9043c-0.0632,0.2898 -0.0037,0.555 0.14,0.8028 -0.3475,0.1741 -0.6949,0.3482 -1.0424,0.5222 -0.2261,-0.4189 -0.3257,-0.8798 -0.2412,-1.4031 0.3813,0.026 0.7624,0.0521 1.1436,0.0781z"/>
  </g>
 </g>
</svg>
